<svg width="32" height="32" viewBox="0 0 32 32" fill="none" xmlns="http://www.w3.org/2000/svg">
<circle cx="16" cy="16" r="16" fill="#0B101B"/>
<g clip-path="url(#clip0_4311_464)">
<path d="M23.5626 8.83997C22.1756 8.20497 20.7114 7.75448 19.2073 7.5C19.0015 7.86793 18.8152 8.24649 18.6494 8.63408C17.0472 8.39266 15.418 8.39266 13.8158 8.63408C13.6499 8.24653 13.4637 7.86798 13.2579 7.5C11.7529 7.75662 10.2877 8.20819 8.89926 8.8433C6.14293 12.9213 5.39574 16.8981 5.76934 20.8184C7.38351 22.011 9.19023 22.918 11.111 23.5C11.5435 22.9183 11.9262 22.3012 12.255 21.6553C11.6304 21.422 11.0276 21.1342 10.4534 20.7951C10.6045 20.6856 10.7523 20.5726 10.8951 20.4631C12.5657 21.2487 14.389 21.656 16.2351 21.656C18.0812 21.656 19.9045 21.2487 21.5751 20.4631C21.7195 20.5809 21.8673 20.6939 22.0167 20.7951C21.4415 21.1347 20.8376 21.4231 20.2118 21.6569C20.5403 22.3026 20.923 22.9192 21.3559 23.5C23.2783 22.9204 25.0864 22.0138 26.7008 20.82C27.1392 16.2738 25.952 12.3335 23.5626 8.83997ZM12.7282 18.4074C11.6871 18.4074 10.827 17.4626 10.827 16.3003C10.827 15.138 11.6573 14.1849 12.7249 14.1849C13.7926 14.1849 14.646 15.138 14.6278 16.3003C14.6095 17.4626 13.7893 18.4074 12.7282 18.4074ZM19.7419 18.4074C18.6992 18.4074 17.8424 17.4626 17.8424 16.3003C17.8424 15.138 18.6726 14.1849 19.7419 14.1849C20.8113 14.1849 21.6581 15.138 21.6398 16.3003C21.6216 17.4626 20.803 18.4074 19.7419 18.4074Z" fill="white"/>
</g>
<defs>
<clipPath id="clip0_4311_464">
<rect width="21.1108" height="16" fill="white" transform="translate(5.67969 7.5)"/>
</clipPath>
</defs>
</svg>
