<svg width="33" height="32" viewBox="0 0 33 32" fill="none" xmlns="http://www.w3.org/2000/svg">
<g clip-path="url(#clip0_4311_472)">
<path fill-rule="evenodd" clip-rule="evenodd" d="M16.8475 0C7.98054 0 0.8125 7.2111 0.8125 16.1322C0.8125 23.2633 5.40531 29.2997 11.7768 31.4361C12.5734 31.5968 12.8651 31.089 12.8651 30.6619C12.8651 30.2879 12.8389 29.006 12.8389 27.6703C8.37835 28.632 7.44948 25.7472 7.44948 25.7472C6.73264 23.8776 5.67052 23.3971 5.67052 23.3971C4.21058 22.4088 5.77686 22.4088 5.77686 22.4088C7.39631 22.5157 8.24608 24.0648 8.24608 24.0648C9.67942 26.5218 11.9891 25.8275 12.9183 25.4001C13.0509 24.3584 13.476 23.6373 13.9273 23.2368C10.3697 22.8628 6.62663 21.474 6.62663 15.2774C6.62663 13.5146 7.26338 12.0724 8.27233 10.9507C8.11315 10.5502 7.5555 8.89391 8.43185 6.67715C8.43185 6.67715 9.78577 6.24973 12.8386 8.33309C14.1456 7.97996 15.4935 7.80032 16.8475 7.79881C18.2014 7.79881 19.5816 7.98597 20.856 8.33309C23.9092 6.24973 25.2631 6.67715 25.2631 6.67715C26.1394 8.89391 25.5815 10.5502 25.4223 10.9507C26.4578 12.0724 27.0683 13.5146 27.0683 15.2774C27.0683 21.474 23.3253 22.8359 19.7411 23.2368C20.3253 23.7442 20.8295 24.7056 20.8295 26.2281C20.8295 28.3914 20.8032 30.1277 20.8032 30.6616C20.8032 31.089 21.0953 31.5968 21.8916 31.4365C28.263 29.2994 32.8558 23.2633 32.8558 16.1322C32.8821 7.2111 25.6878 0 16.8475 0Z" fill="#0B101B"/>
</g>
<defs>
<clipPath id="clip0_4311_472">
<rect width="32.0434" height="32" fill="white" transform="translate(0.8125)"/>
</clipPath>
</defs>
</svg>
