<svg width="89" height="26" viewBox="0 0 89 26" fill="none" xmlns="http://www.w3.org/2000/svg">
<path d="M49.6893 20.0322C49.2491 20.6586 48.665 21.1243 47.9369 21.429C47.2089 21.7168 46.3962 21.8608 45.4988 21.8608C44.7877 21.8608 44.1359 21.7761 43.5433 21.6068C42.9676 21.4375 42.4597 21.1835 42.0195 20.8449C41.5793 20.4893 41.2322 20.0576 40.9782 19.5497C40.7242 19.0248 40.5972 18.4322 40.5972 17.7719C40.5972 17.0438 40.7412 16.4258 41.029 15.9179C41.3168 15.393 41.7062 14.9698 42.1972 14.6481C42.7052 14.3264 43.2978 14.0893 43.975 13.937C44.6523 13.7677 45.3634 13.683 46.1083 13.683H49.5369C49.5369 12.701 49.3168 11.9391 48.8766 11.3973C48.4364 10.8555 47.666 10.5761 46.5655 10.5592C45.9221 10.5592 45.3634 10.6692 44.8893 10.8894C44.4322 11.1095 44.1274 11.4735 43.975 11.9814H41.0036C41.1052 11.2703 41.3337 10.6692 41.6893 10.1782C42.0618 9.68724 42.502 9.28089 43.0099 8.9592C43.5348 8.6375 44.1105 8.40893 44.7369 8.27348C45.3803 8.13803 46.0237 8.07031 46.6671 8.07031C47.4967 8.07031 48.2671 8.18036 48.9782 8.40047C49.6893 8.62057 50.3073 8.99306 50.8321 9.51793C51.4247 10.1274 51.8226 10.8555 52.0258 11.702C52.229 12.5486 52.3306 13.4714 52.3306 14.4703V21.683H49.8163L49.6893 20.0322ZM49.5369 15.7401H46.7433C46.2523 15.7401 45.7612 15.7825 45.2702 15.8671C44.7792 15.9348 44.356 16.1126 44.0004 16.4005C43.6618 16.6714 43.4925 17.0692 43.4925 17.5941C43.4925 18.2375 43.721 18.7285 44.1782 19.0671C44.6523 19.3888 45.2279 19.5497 45.9052 19.5497C46.43 19.5497 46.9126 19.4819 47.3528 19.3465C47.8099 19.211 48.1993 18.9909 48.521 18.6862C48.8427 18.3645 49.0882 17.9666 49.2575 17.4925C49.4438 17.0015 49.5369 16.4174 49.5369 15.7401Z" fill="#0B101B"/>
<path d="M57.0901 2.73698C57.6149 2.73698 58.0467 2.89783 58.3853 3.21952C58.7409 3.54122 58.9186 3.98143 58.9186 4.54016C58.9186 5.08196 58.7409 5.5137 58.3853 5.83539C58.0467 6.15709 57.6149 6.31793 57.0901 6.31793C56.5313 6.31793 56.0827 6.15709 55.744 5.83539C55.4054 5.5137 55.2361 5.08196 55.2361 4.54016C55.2361 3.98143 55.4054 3.54122 55.744 3.21952C56.0827 2.89783 56.5313 2.73698 57.0901 2.73698ZM55.6171 21.683V8.29888H58.5123V21.683H55.6171Z" fill="#0B101B"/>
<path d="M81.5228 8.07031C82.5894 8.07031 83.5291 8.23962 84.3418 8.57824C85.1545 8.91687 85.8402 9.39094 86.3989 10.0005C86.9746 10.5931 87.4063 11.3126 87.6942 12.1592C87.982 13.0058 88.1259 13.9454 88.1259 14.9782C88.1259 16.028 87.982 16.9761 87.6942 17.8227C87.4233 18.6523 87.0085 19.3719 86.4497 19.9814C85.891 20.5909 85.1968 21.0565 84.3672 21.3782C83.5545 21.6999 82.6064 21.8608 81.5228 21.8608C80.4561 21.8608 79.5164 21.6999 78.7037 21.3782C77.891 21.0396 77.2053 20.574 76.6466 19.9814C76.1048 19.3719 75.69 18.6438 75.4021 17.7973C75.1312 16.9507 74.9958 16.011 74.9958 14.9782C74.9958 13.9454 75.1312 13.0058 75.4021 12.1592C75.69 11.3126 76.1132 10.5931 76.672 10.0005C77.2307 9.39094 77.9164 8.91687 78.7291 8.57824C79.5418 8.23962 80.473 8.07031 81.5228 8.07031ZM81.5228 19.3465C82.1831 19.3465 82.7418 19.2364 83.1989 19.0163C83.673 18.7793 84.054 18.4661 84.3418 18.0766C84.6466 17.6872 84.8667 17.2301 85.0021 16.7052C85.1545 16.1803 85.2307 15.6132 85.2307 15.0036C85.2307 14.3941 85.1545 13.8269 85.0021 13.302C84.8667 12.7602 84.6466 12.2946 84.3418 11.9052C84.054 11.5158 83.673 11.211 83.1989 10.9909C82.7418 10.7708 82.1831 10.6608 81.5228 10.6608C80.8794 10.6608 80.3291 10.7708 79.872 10.9909C79.4148 11.211 79.0339 11.5158 78.7291 11.9052C78.4244 12.2946 78.1958 12.7602 78.0434 13.302C77.9079 13.8269 77.8402 14.3941 77.8402 15.0036C77.8402 15.6132 77.9079 16.1803 78.0434 16.7052C78.1958 17.2301 78.4159 17.6872 78.7037 18.0766C79.0085 18.4661 79.3894 18.7793 79.8466 19.0163C80.3206 19.2364 80.8794 19.3465 81.5228 19.3465Z" fill="#0B101B"/>
<path d="M66.8152 13.7592H64.7327V4.2585H61.8628V21.683H64.7327V16.2735H66.993L70.5231 21.683H73.8755L69.3041 14.6735L73.52 8.29888H70.2692L66.8152 13.7592Z" fill="#0B101B"/>
<path d="M38.6395 8.26085H35.2114V4.2585H34.3255L30.1593 9.91894V10.6509H32.2987V17.2753C32.2987 18.839 32.651 19.9646 33.3555 20.6519C34.0772 21.3393 35.2715 21.683 36.9383 21.683H38.5364V19.1569H37.1961C36.4228 19.1569 35.8987 18.9679 35.6238 18.5899C35.3488 18.2118 35.2114 17.6362 35.2114 16.8629V10.6509H38.6395V8.26085Z" fill="#0B101B"/>
<path d="M26.3635 20.4189L21.749 14.1494C21.2477 13.4681 20.5054 13.06 19.7149 12.97C19.5349 12.9492 19.3742 12.8447 19.2843 12.6873C19.1927 12.5298 19.183 12.3386 19.2553 12.1715C19.5719 11.442 19.5911 10.5953 19.2505 9.82086L16.1286 2.69018C15.6659 1.63135 14.6199 0.948486 13.4647 0.948486C12.3094 0.948486 11.2635 1.63295 10.8007 2.69018L7.67884 9.82086C7.33982 10.5953 7.35749 11.442 7.67402 12.1715C7.74632 12.3386 7.73508 12.5298 7.6451 12.6873C7.55351 12.8447 7.39444 12.9492 7.21449 12.97C6.42398 13.06 5.68167 13.4681 5.18037 14.1494L0.565841 20.4189C-0.118627 21.3492 -0.187717 22.596 0.389099 23.597C0.967522 24.5964 2.08259 25.1603 3.2298 25.0334L10.9662 24.1722C11.8065 24.079 12.5312 23.6404 13.0035 23.0009C13.1112 22.8547 13.2831 22.7679 13.4647 22.7679C13.6462 22.7679 13.8166 22.8547 13.9258 23.0009C14.3982 23.6404 15.1228 24.079 15.9631 24.1722L23.6996 25.0334C24.8468 25.1619 25.9618 24.598 26.5403 23.597C27.1171 22.596 27.048 21.3492 26.3635 20.4189ZM9.69689 10.7158L12.8236 3.5771C12.9361 3.32163 13.1883 3.15613 13.4663 3.15613C13.7442 3.15613 13.9965 3.32163 14.109 3.5771L17.2357 10.7158C17.3337 10.9407 17.3128 11.201 17.1778 11.4067C17.0429 11.6124 16.8147 11.7361 16.5673 11.7361H10.3637C10.1179 11.7361 9.88809 11.6124 9.75313 11.4067C9.61816 11.201 9.59727 10.9407 9.69528 10.7158H9.69689ZM11.302 21.5837C11.1912 21.8039 10.9759 21.9517 10.7316 21.979L2.98718 22.8402C2.71082 22.8707 2.44089 22.7358 2.30111 22.4948C2.16132 22.2537 2.17899 21.9533 2.34449 21.7283L6.96384 15.4525C7.11005 15.2548 7.34464 15.1424 7.59047 15.1568C7.8363 15.1697 8.05803 15.3062 8.18174 15.5199L8.18657 15.528L11.2795 20.8848L11.2843 20.8928C11.4081 21.1065 11.4145 21.3668 11.3036 21.5853L11.302 21.5837ZM14.1009 19.1608C13.9692 19.3873 13.7282 19.5287 13.4647 19.5287C13.2028 19.5287 12.9602 19.3889 12.8284 19.1624L10.4521 15.0476C10.3203 14.821 10.3203 14.5398 10.4521 14.3133C10.5838 14.0867 10.8248 13.9453 11.0883 13.9453H15.8394C16.1013 13.9453 16.3439 14.0835 16.4757 14.3117C16.6074 14.5398 16.6074 14.8194 16.4757 15.0459L14.1009 19.1608ZM24.6299 22.4948C24.4901 22.7358 24.2217 22.8723 23.9438 22.8418L16.1993 21.9806C15.9551 21.9533 15.7398 21.8055 15.6289 21.5853C15.5181 21.3652 15.5245 21.1049 15.6482 20.8928L15.653 20.8848L18.746 15.528L18.7508 15.5199C18.8745 15.3062 19.0963 15.1697 19.3421 15.1568C19.5879 15.144 19.8225 15.2548 19.9687 15.4525L24.5881 21.7283C24.7536 21.9533 24.7696 22.2537 24.6315 22.4948H24.6299Z" fill="#E81899"/>
</svg>
